<svg width="100" height="109" viewBox="0 0 100 109" fill="none" xmlns="http://www.w3.org/2000/svg">
<path d="M81.4121 44.5325C83.0625 47.7449 84.3221 51.4068 85.1908 55.4392C86.8335 63.0567 86.9458 69.7487 86.2708 75.1439L86.2726 75.1475C85.3166 82.816 82.7729 87.8671 80.7717 89.2563C77.36 91.6202 71.966 90.5703 69.6533 91.6707C67.3406 92.7711 67.1424 97.1355 58.7413 99.2657C50.3424 101.391 26.5494 84.675 20.414 67.0344C19.2317 63.6392 18.8493 60.5208 19.0547 57.6675C19.0552 57.6595 19.0552 57.6595 19.0552 57.6595C19.5906 50.1789 24.1652 44.5418 28.9888 40.6733C28.9924 40.6715 28.997 40.6649 29.0033 40.6619C31.8903 38.3431 34.8639 36.6603 37.1111 35.591C59.3536 25.0048 74.1541 30.3827 81.4121 44.5325Z" fill="#B61F25"/>
<path d="M40.1912 27.5534C39.0802 25.5665 38.106 23.1193 36.4322 21.5235C33.5969 18.8208 29.8611 19.9074 26.7457 21.427C24.2639 22.6383 26.1764 26.4719 28.6646 25.2575C30.154 24.5308 31.8598 23.5001 33.5369 24.6336C34.5814 25.3388 35.3567 27.6942 35.9666 28.7816C37.7002 31.8722 39.4034 34.9783 41.0858 38.0944C42.3938 40.5171 46.2781 38.6814 44.9638 36.2484C43.3929 33.3391 41.8057 30.4398 40.1912 27.5534Z" fill="#559241"/>
<path d="M44.932 36.9478C40.8058 26.946 41.8594 15.076 47.6743 6.02631C49.9869 8.6543 52.2054 10.8993 53.8006 13.9953C55.3958 17.0913 56.1987 20.7165 55.2634 24.039C54.4474 26.9415 52.4123 29.3308 50.3778 31.5733C49.027 33.0627 46.3312 35.5009 44.932 36.9478Z" fill="#3B6631"/>
<path d="M52.512 34.2039C46.2081 35.2697 40.5382 37.7176 35.4291 41.4574C33.1979 43.0911 36.0994 46.3087 38.325 44.6799C42.8083 41.398 47.8165 39.3458 53.3357 38.4137C56.0944 37.947 55.2657 33.7384 52.512 34.2039Z" fill="#961A1E"/>
<path d="M27.9947 54.4287C24.6113 56.0207 22.8251 60.4829 24.6906 63.8592C26.5625 67.2458 30.6986 68.909 34.3258 67.2032C37.7092 65.6112 39.4964 61.1486 37.6299 57.7728C35.7585 54.387 31.6219 52.723 27.9947 54.4287Z" fill="#DD1F26"/>
</svg>
