<svg width="159" height="99" viewBox="0 0 159 99" fill="none" xmlns="http://www.w3.org/2000/svg">
<path d="M6.20676 26.9323C13.2373 29.4275 19.7541 33.3004 25.2574 38.2559C28.6865 41.3438 50.0654 54.588 67.1443 50.2168C82.9338 46.1757 101.749 28.565 106.679 17.8659C108.727 13.4199 117.084 2.32395 133.191 5.75005C145.307 8.32763 154.177 46.2414 126.067 70.6675C119.838 76.0807 95.8833 97.1225 73.9788 98.11C36.3854 99.8052 16.565 83.3046 5.98178 68.5431C-1.68963 57.8441 -0.769033 38.7738 6.20676 26.9323Z" fill="#EFCC18"/>
<path d="M152.112 24.5599C150.19 18.6525 149.915 15.1208 150.16 10.3189C150.258 8.4095 150.768 6.43381 152.066 5.00514C153.53 3.39452 159.085 2.62358 158.152 0.672409C154.514 -0.216589 143.111 -0.0222831 142.023 1.67426C141.499 3.91362 142.037 7.38089 141.684 9.65226C141.011 13.9652 139.423 18.2145 139.37 22.5768C142.55 25.6953 147.701 26.3946 152.112 24.5599Z" fill="#3B6631"/>
<path d="M89.7786 66.8061C84.7771 68.7288 79.5743 70.8056 74.1001 70.6572C69.5611 70.5336 64.948 69.0904 60.6817 67.6993C51.1773 64.6008 42.3445 59.8282 34.4685 53.7839C32.2935 52.1141 29.1952 55.1004 31.3935 56.788C39.8852 63.3046 49.2666 68.4558 59.523 71.7988C64.1695 73.3137 69.1616 74.7821 74.0961 74.9101C79.9658 75.0618 85.558 72.9735 90.9296 70.9078C93.5015 69.9181 92.3861 65.8035 89.7786 66.8061Z" fill="#F0D93D"/>
<path d="M119.696 43.6733C115.609 51.7831 109.143 58.0608 100.828 62.0014C98.3132 63.1941 100.51 66.8639 103.018 65.6752C111.926 61.4526 119.066 54.5118 123.446 45.8232C124.678 43.3785 120.935 41.2167 119.696 43.6733Z" fill="#F0D93D"/>
</svg>
