<svg width="158" height="122" viewBox="0 0 158 122" fill="none" xmlns="http://www.w3.org/2000/svg">
<path d="M51.3866 62.3293C66.7179 69.4345 79.5961 81.0042 87.3721 95.8019C90.1587 101.105 94.5199 105.471 100.222 108.113C115.357 115.128 134.2 107.347 142.308 90.7356C150.416 74.1239 144.72 54.9712 129.584 47.9568L73.5216 21.9751C61.9808 16.6266 48.1157 21.5313 42.5527 32.9285L41.5947 34.8912C36.5594 45.2049 40.9433 57.4895 51.3866 62.3293Z" fill="#803A4D"/>
<path d="M61.761 69.1062L40.5346 59.2693C30.9734 54.8384 26.9592 43.592 31.5683 34.1494L34.4041 28.3397L49.748 35.4505C62.5574 41.3867 67.9361 56.4555 61.761 69.1062Z" fill="#6DA317"/>
<path d="M82.8806 25.7457L61.6542 15.9088C52.0931 11.478 40.606 15.5407 35.9969 24.9833L33.1611 30.793L48.505 37.9037C61.3144 43.84 76.7051 38.3973 82.8806 25.7457Z" fill="#6DA317"/>
<path opacity="0.1" d="M135.797 69.125C138.466 70.3616 139.586 73.5002 138.3 76.1354C137.013 78.7707 133.806 79.9045 131.137 78.6679C128.468 77.4313 127.348 74.2928 128.634 71.6575C129.921 69.0222 133.128 67.8884 135.797 69.125Z" fill="white"/>
<path opacity="0.1" d="M129.613 50.0966C132.282 51.3331 133.403 54.4717 132.116 57.107C130.83 59.7423 127.623 60.8761 124.954 59.6395C122.285 58.4029 121.164 55.2643 122.451 52.629C123.738 49.9938 126.944 48.86 129.613 50.0966Z" fill="white"/>
<path d="M13.7592 34.1628C14.2645 30.0745 18.7159 27.3276 22.8994 27.2041C27.0823 27.0793 31.0209 28.8965 34.7755 30.6717C38.0534 32.2225 41.3316 33.7724 44.6095 35.3232" stroke="#6DA317" stroke-width="4" stroke-miterlimit="10"/>
</svg>
