<svg width="135" height="151" viewBox="0 0 135 151" fill="none" xmlns="http://www.w3.org/2000/svg">
<path d="M87.9758 80.6315C85.5275 79.6571 75.0813 104.622 74.2246 107.08C72.5187 111.974 71.1785 117 70.2132 122.129C68.6579 130.398 69.3421 138.88 55.4631 136.581C49.286 135.558 42.2965 133.061 37.8738 128.725C33.728 124.661 33.35 114.381 35.8169 104.13C38.8897 91.3655 42.5178 80.1687 48.6881 66.1837C51.3153 66.2889 53.0518 67.4232 55.6462 68.2632C50.6422 78.4807 41.2913 98.4255 48.971 101.367C53.6849 104.271 61.3771 69.1682 63.9086 71.6939C71.2537 74.99 55.8191 105.162 61.2306 107.464C65.5074 109.207 76.4659 85.9472 81.1181 78.5787C81.8213 77.4659 82.5779 76.3069 83.9335 75.7221C85.2892 75.1372 87.4362 75.3709 88.4846 76.5793C89.5344 77.7894 89.58 81.2706 87.9758 80.6315Z" fill="#3B6631"/>
<path d="M66.376 34.5436C68.1211 30.8439 69.8905 27.1066 72.4468 23.8885C75.0031 20.6704 78.4589 17.9708 82.4992 17.078C87.6584 15.9368 93.38 18.1134 96.3711 22.3548C97.9353 24.5732 98.7633 27.224 99.2464 29.8895C100.395 36.2251 99.6832 42.8951 97.2171 48.8953C103.025 49.8259 110.294 52.6026 114.37 56.7446C118.446 60.8866 120.475 67.2675 118.355 72.6966C116.54 77.3472 111.862 80.6832 106.858 81.4037C101.853 82.1242 96.6709 80.3961 92.826 77.218C92.7361 79.2295 91.4975 81.3845 90.8222 83.2917C89.2899 87.6178 85.284 91.6186 80.6589 91.2474C76.4507 90.91 73.4595 87.2682 70.9869 83.9247C67.2043 87.1298 61.9395 90.1334 57.1142 89.0245C54.9719 88.5329 53.1219 87.1592 51.7637 85.4653C48.8493 81.8317 48.1472 76.5936 49.9997 72.2936C46.3547 74.7901 40.4949 76.1402 36.2985 74.8175C35.0555 74.4254 33.8374 73.8423 32.972 72.8844C31.7977 71.5851 31.4175 69.7723 31.2479 68.0343C30.9626 65.125 31.1648 62.0875 32.4429 59.4311C33.7206 56.7756 36.2134 54.5603 39.1641 54.1415C33.7609 51.2285 31.2057 42.9157 34.6515 37.8244C38.0963 32.7327 45.6723 31.0442 51.15 33.8208C50.1837 30.1177 54.4891 26.3269 58.3817 26.5204C62.273 26.7167 64.6616 31.1198 66.376 34.5436Z" fill="#559241"/>
<path d="M86.9893 33.8682C90.1759 34.2872 92.6134 36.5088 93.3936 39.5377C94.526 43.9353 91.4524 48.4864 86.8109 49.0801C82.5045 49.631 78.8223 46.5511 78.1401 42.4612C77.325 37.5719 82.1825 33.2366 86.9893 33.8682Z" fill="#61A64A"/>
</svg>
