<svg width="140" height="153" viewBox="0 0 140 153" fill="none" xmlns="http://www.w3.org/2000/svg">
<path d="M102.123 58.3644C98.0191 56.3074 94.4479 53.3278 91.2437 50.0183C80.1563 38.5699 62.2889 31.9715 49.3043 38.8296C36.3187 45.6883 32.2193 63.889 35.9882 79.2029C37.0782 83.629 37.6845 88.1746 37.2075 92.6511C36.3679 100.52 37.8398 108.631 41.9412 116.02C53.1136 136.146 79.554 143.278 100.999 131.952C122.443 120.625 130.771 95.129 119.598 75.0032C115.497 67.6149 109.338 61.9795 102.123 58.3644Z" fill="#F7C830"/>
<path d="M55.4966 18.9651C51.152 20.5801 47.8976 25.0111 47.5502 30.5144C47.2034 36.0187 49.8611 41.0347 53.9497 43.485C58.2942 41.8701 61.5487 37.4391 61.8955 31.9347C62.2429 26.4314 59.5851 21.4154 55.4966 18.9651Z" fill="#40771C"/>
<path d="M33.261 24.5175C37.7688 25.8883 41.748 28.805 44.9401 32.3215C48.1323 35.8379 50.593 39.9453 52.7834 44.1422" stroke="#B7925D" stroke-width="2" stroke-miterlimit="10"/>
<path d="M44.0384 50.5953C44.0384 50.5953 48.519 45.4839 61.7615 41.209" stroke="#D6A024" stroke-width="2" stroke-miterlimit="10" stroke-linecap="round" stroke-linejoin="round"/>
<path opacity="0.1" d="M101.944 101.065C103.934 100.013 104.635 97.5179 103.51 95.4906C102.385 93.4633 99.8589 92.672 97.8688 93.7231C95.8786 94.7742 95.1776 97.2698 96.303 99.2971C97.4285 101.324 99.9541 102.116 101.944 101.065Z" fill="white"/>
<path opacity="0.1" d="M108.298 80.6957C109.424 82.7228 108.723 85.2186 106.733 86.2696C104.743 87.3207 102.217 86.5293 101.091 84.5021C99.9661 82.475 100.667 79.9792 102.657 78.9282C104.647 77.8771 107.173 78.6686 108.298 80.6957Z" fill="white"/>
<path opacity="0.1" d="M117.873 92.6066C118.998 94.6337 118.297 97.1295 116.307 98.1805C114.317 99.2316 111.791 98.4402 110.666 96.413C109.541 94.3859 110.242 91.8901 112.232 90.8391C114.222 89.7881 116.748 90.5795 117.873 92.6066Z" fill="white"/>
<path opacity="0.1" d="M114.417 106.747C115.543 108.775 114.841 111.27 112.851 112.321C110.861 113.372 108.336 112.581 107.21 110.554C106.085 108.527 106.786 106.031 108.776 104.98C110.766 103.929 113.292 104.72 114.417 106.747Z" fill="white"/>
<path opacity="0.1" d="M102.34 110.295C103.466 112.322 102.765 114.818 100.775 115.869C98.7847 116.92 96.2587 116.128 95.1334 114.101C94.0081 112.074 94.7091 109.578 96.6992 108.527C98.6892 107.476 101.215 108.268 102.34 110.295Z" fill="white"/>
</svg>
