<svg width="81" height="108" viewBox="0 0 81 108" fill="none" xmlns="http://www.w3.org/2000/svg">
<path d="M47.6851 29.8219C48.1244 27.1215 47.7535 24.5276 46.7785 22.365C46.1558 20.9839 46.1059 19.268 46.8498 17.86C47.5533 16.5295 47.9983 14.9828 48.0826 13.3072C48.2891 9.19229 46.0341 5.53529 42.706 4.57917C38.2281 3.29209 33.659 6.97883 32.7909 12.3176C32.5955 13.5162 32.6063 14.6893 32.7916 15.7885C33.0405 17.2664 32.6305 18.8314 31.6292 19.8817C29.8096 21.7888 28.5069 24.4199 28.1226 27.4392C27.832 29.7263 28.1376 31.9402 28.8989 33.8609C29.4552 35.2633 29.4978 36.8147 29.0306 38.2601C28.8409 38.8475 28.6905 39.4622 28.5866 40.0995C27.7292 45.3701 30.2903 50.1242 34.3075 50.7171C38.3246 51.3099 42.2759 47.5178 43.1332 42.2472C43.2348 41.6206 43.2872 41.0025 43.2946 40.3976C43.3113 38.9142 43.8016 37.4572 44.7655 36.3097C46.2193 34.5753 47.2742 32.3446 47.6851 29.8219Z" fill="#40771C"/>
<path d="M35.8945 44.5988L34.9098 44.4506L30.7376 70.6225L31.7224 70.7707L35.8945 44.5988Z" fill="#40771C"/>
<path d="M44.0787 29.1478C44.8037 26.5051 46.2261 24.2732 48.0216 22.6699C49.1685 21.646 49.9314 20.0941 49.8369 18.5169C49.7482 17.0265 49.9863 15.438 50.6086 13.871C52.1373 10.023 55.7289 7.54624 59.1756 7.95769C63.8134 8.51075 66.4585 13.6538 65.0258 18.8785C64.7043 20.0517 64.2048 21.1218 63.5762 22.0567C62.7314 23.3138 62.4535 24.9055 62.932 26.2545C63.8022 28.7046 63.8967 31.6178 62.9883 34.5312C62.2996 36.738 61.0957 38.6471 59.5968 40.1116C58.5018 41.1806 57.8153 42.5849 57.6407 44.0894C57.5692 44.7006 57.4503 45.3217 57.2794 45.9455C55.8644 51.1035 51.5345 54.4666 47.6084 53.4559C43.6822 52.4453 41.647 47.4448 43.062 42.2868C43.2306 41.6737 43.4406 41.0874 43.6864 40.5307C44.2903 39.1658 44.4486 37.6417 44.0459 36.2183C43.4366 34.0675 43.4008 31.6166 44.0787 29.1478Z" fill="#40771C"/>
<path d="M41.8784 72.8527L42.8514 73.1052L49.8193 47.5093L48.8463 47.2568L41.8784 72.8527Z" fill="#40771C"/>
<path d="M54.9975 31.9703C55.5803 29.2959 55.3493 26.6833 54.4919 24.4722C53.9449 23.0595 53.9858 21.3425 54.8044 19.9741C55.5779 18.6812 56.1049 17.1592 56.2785 15.4894C56.7051 11.3883 54.6501 7.61584 51.3806 6.48606C46.9802 4.96598 42.2234 8.40996 41.0706 13.7004C40.8117 14.8883 40.7589 16.0607 40.8857 17.1685C41.0549 18.6578 40.5623 20.2011 39.5059 21.1974C37.5869 23.0081 36.1465 25.5685 35.6014 28.5655C35.1892 30.8352 35.3752 33.0637 36.0324 35.0234C36.5126 36.4543 36.4717 38.0062 35.9278 39.4259C35.7064 40.0028 35.524 40.609 35.3864 41.2405C34.2485 46.4626 36.55 51.3457 40.5275 52.1486C44.5041 52.9514 48.6513 49.369 49.789 44.1479C49.9242 43.5271 50.0098 42.9126 50.049 42.3081C50.1453 40.8275 50.713 39.3973 51.7359 38.3004C53.2798 36.6433 54.4528 34.4701 54.9975 31.9703Z" fill="#6DA317"/>
<path d="M42.4286 46.1087L41.4471 45.9081L35.8705 71.8283L36.8519 72.0289L42.4286 46.1087Z" fill="#6DA317"/>
<path d="M63.6373 88.9741C61.3808 99.3756 30.0265 101.82 30.0265 101.82C30.0265 101.82 2.33034 87.4015 4.58661 77.0011C6.84288 66.6007 21.8907 60.8491 38.1974 64.1555C54.5041 67.4618 65.8938 78.5727 63.6373 88.9741Z" fill="#A34A63"/>
<path d="M17.7861 64.8481L60.7593 77.3774" stroke="#803A4D" stroke-width="0.25" stroke-miterlimit="10"/>
<path d="M61.8546 79.029L8.28017 70.2561" stroke="#803A4D" stroke-width="0.25" stroke-miterlimit="10"/>
<path d="M5.91803 73.2999L63.8679 88.2553" stroke="#803A4D" stroke-width="0.25" stroke-miterlimit="10"/>
<path d="M62.2591 91.8335L7.10419 84.6097" stroke="#803A4D" stroke-width="0.25" stroke-miterlimit="10"/>
<path d="M13.8263 91.2266L58.1952 94.9798" stroke="#803A4D" stroke-width="0.25" stroke-miterlimit="10"/>
<path d="M47.5838 98.8793L21.1891 96.4926" stroke="#803A4D" stroke-width="0.25" stroke-miterlimit="10"/>
</svg>
