<svg width="153" height="120" viewBox="0 0 153 120" fill="none" xmlns="http://www.w3.org/2000/svg">
<path d="M43.512 65.529C59.8182 59.8097 74.5301 58.034 76.3711 61.5634C78.2115 65.0917 66.4856 72.5893 50.1778 78.3081C33.8716 84.0275 17.3187 82.2738 17.3187 82.2738C17.3187 82.2738 27.2049 71.249 43.512 65.529Z" fill="#40771C"/>
<path d="M43.7383 79.6094C59.3204 66.4088 73.9112 58.3044 76.3285 61.5067C78.7457 64.7091 68.0728 78.0062 52.49 91.2058C36.9079 104.406 19.8998 109.309 19.8998 109.309C19.8998 109.309 28.1555 92.809 43.7383 79.6094Z" fill="#6EA317"/>
<path d="M139.784 19.8892C145.376 28.3461 144.391 38.8877 137.533 43.9522L93.8026 76.2496C84.7754 82.9169 70.9296 79.1443 63.5671 68.0104C56.2046 56.8765 58.3743 42.9922 68.3045 37.6904L116.408 12.0065C123.952 7.97838 134.192 11.4324 139.784 19.8892Z" fill="#D6E0AB"/>
<path d="M95.8304 74.895L83.1404 55.6722" stroke="#65361A" stroke-width="0.25" stroke-miterlimit="10"/>
<path d="M80.6367 41.6057L75.2352 33.4235" stroke="#65361A" stroke-width="0.25" stroke-miterlimit="10"/>
<path d="M97.3691 53.8065L86.7587 37.7338" stroke="#65361A" stroke-width="0.25" stroke-miterlimit="10"/>
<path d="M102.121 37.6566L96.9474 29.8189" stroke="#65361A" stroke-width="0.25" stroke-miterlimit="10"/>
<path d="M112.894 53.9756L108.243 46.9294" stroke="#65361A" stroke-width="0.25" stroke-miterlimit="10"/>
<path d="M120.389 39.2476L109.094 22.1372" stroke="#65361A" stroke-width="0.25" stroke-miterlimit="10"/>
<path d="M134.405 46.1146L123.757 29.9849" stroke="#65361A" stroke-width="0.25" stroke-miterlimit="10"/>
<path d="M132.37 29.6346L124.61 17.8796" stroke="#65361A" stroke-width="0.25" stroke-miterlimit="10"/>
<path d="M73.2099 65.6661L66.5562 55.5871" stroke="#65361A" stroke-width="0.25" stroke-miterlimit="10"/>
<path d="M75.1276 77.8609L69.528 69.3786" stroke="#65361A" stroke-width="0.25" stroke-miterlimit="10"/>
</svg>
