<svg width="66" height="58" viewBox="0 0 66 58" fill="none" xmlns="http://www.w3.org/2000/svg">
<path d="M42.0706 12.4876C38.5622 12.6017 35.2818 13.5151 32.3679 15.0109C29.3589 13.7075 26.0241 13.0079 22.5157 13.122C10.061 13.5253 0.29924 23.7353 0.712771 35.9261C1.12529 48.1169 11.5568 57.6721 24.0115 57.2678C27.5199 57.1537 30.8013 56.2404 33.7143 54.7445C36.7232 56.0479 40.058 56.7475 43.5664 56.6334C56.0211 56.2301 65.7829 46.0201 65.3694 33.8293C64.9558 21.6386 54.5253 12.0833 42.0706 12.4876Z" fill="#B61F25"/>
<path d="M13.5421 43.6318C8.80957 40.6721 7.57228 34.2519 10.6101 29.7083C12.2012 27.3277 8.32096 25.0722 6.73284 27.4479C2.32582 34.04 4.508 43.2204 11.2329 47.4268C13.6825 48.9585 15.9887 45.1615 13.5421 43.6318Z" fill="#DD1F26"/>
<path d="M24.8733 52.1849C25.1731 51.1215 24.5025 49.6711 23.295 49.4689C22.058 49.2618 21.1485 48.8649 20.155 48.1127C19.1889 47.3815 17.6319 47.9432 17.0618 48.88C16.3755 50.0087 16.8776 51.1744 17.8458 51.9077C19.076 52.8392 20.5668 53.4725 22.0985 53.7296C23.3 53.9298 24.5265 53.4164 24.8733 52.1849Z" fill="#DD1F26"/>
<path d="M32.0809 6.55366L19.9167 0.752081L22.6623 10.7599L11.9422 11.933L21.6724 15.9103L19.6678 23.3823L33.4627 19.3125L36.0338 24.6882L39.7504 19.3224L47.2732 22.631L43.6461 14.8324L51.5216 8.4336L39.7361 8.57083L42.8186 1.79146L32.0809 6.55366Z" fill="#559241"/>
</svg>
