<svg width="90" height="92" viewBox="0 0 90 92" fill="none" xmlns="http://www.w3.org/2000/svg">
<path d="M51.4991 42.666C56.7799 56.9427 55.0637 80.8892 43.6133 85.1983C32.1629 89.5074 15.314 72.5456 10.0335 58.2699C4.75273 43.9931 9.75398 28.927 21.2046 24.6189C32.6548 20.3088 46.2184 28.3892 51.4991 42.666Z" fill="#ED5746"/>
<path d="M37.4793 45.6032C39.1295 60.6712 51.4356 81.5614 63.7007 80.7014C75.9658 79.8414 83.5447 57.5553 81.8947 42.4882C80.2445 27.4202 68.9645 15.9027 56.6996 16.7637C44.4353 17.6225 35.8301 30.5349 37.4793 45.6032Z" fill="#ED5746"/>
<path d="M51.6073 10.6017C47.2457 10.9999 43.1244 14.134 41.3502 18.9014C39.576 23.6687 40.6527 28.7132 43.7044 31.8364C48.0663 31.4392 52.1873 28.3041 53.9615 23.5367C55.7357 18.7694 54.6597 13.7237 51.6073 10.6017Z" fill="#6EA317"/>
<path d="M30.0236 10.2527C33.736 12.5245 36.5628 16.0341 38.5189 19.8863C40.475 23.7386 41.6138 27.9371 42.4836 32.1519" stroke="#B7925D" stroke-width="2" stroke-miterlimit="10"/>
<path d="M32.8521 35.7869C32.8521 35.7869 38.2584 32.3256 51.373 31.6879" stroke="#C4483A" stroke-width="2" stroke-miterlimit="10" stroke-linecap="round" stroke-linejoin="round"/>
</svg>
