<svg width="134" height="178" viewBox="0 0 134 178" fill="none" xmlns="http://www.w3.org/2000/svg">
<path d="M81.7704 125.278C75.6605 122.651 68.8645 113.748 65.7521 109.965C53.0947 94.5785 21.504 45.5013 27.2692 43.1964C31.0343 41.8835 59.861 86.5857 71.6665 102.681C65.1377 87.0248 55.7847 75.2392 47.1517 60.5846C38.5188 45.93 24.6571 15.278 30.9084 13.0305C34.6758 11.1618 69.0382 72.1052 81.5988 98.4507C76.0988 84.915 66.0585 42.1649 69.6081 40.5016C73.8044 39.4322 87.8039 85.0932 91.5042 107.68C92.1978 111.915 92.7798 116.38 91.2414 120.371C89.0181 126.137 85.5236 126.892 81.7704 125.278Z" fill="#559241"/>
<path d="M62.6622 135.223C60.8134 141.664 62.0858 148.898 65.909 154.497C78.8757 173.492 116.168 169.466 121.861 146.418C123.891 138.198 122.97 129.093 118.414 121.846C103.906 98.7752 68.9634 113.268 62.6622 135.223Z" fill="#472876"/>
<path d="M71.3965 128.339C68.0391 129.984 66.3263 134.475 68.2464 137.821C70.173 141.178 74.3355 142.775 77.9343 141.012C81.2917 139.367 83.0055 134.876 81.0845 131.53C79.1579 128.173 74.9949 126.575 71.3965 128.339Z" fill="#69479B"/>
</svg>
