<svg width="221" height="204" viewBox="0 0 221 204" fill="none" xmlns="http://www.w3.org/2000/svg">
<path d="M107.991 130.67C119.001 131.456 143.817 142.806 145.573 140.862C147.302 138.95 152.442 131.203 149.248 128.344C143.444 123.15 113.847 110.057 106.766 106.112C107.138 104.693 110.269 99.5381 110.642 98.1189C124.916 105.924 153.32 122.631 157.215 120.958C159.197 118.851 161.247 115.173 160.398 112.451C159.605 109.911 130.996 87.6864 123.582 71.797C125.455 71.5951 128.779 68.4129 128.958 66.5735C136.282 83.5134 152.565 94.8489 168.705 104.194C176.294 108.588 184.566 113.334 187.784 121.39C191.864 131.605 190.986 139.309 182.056 151.522C177.12 158.272 165.309 166.474 160.097 165.851C151.245 164.792 144.756 156.606 140.559 153.7C129.694 146.176 116.798 142.446 103.662 140.185C103.978 137.037 106.802 133.619 107.991 130.67Z" fill="#355C2C"/>
<path d="M104.435 151.45C97.9203 160.328 88.1367 165.224 79.9372 156.494C76.8378 153.195 76.0217 147.983 72.3356 145.35C65.1572 140.223 53.5756 148.745 46.4547 143.538C42.281 140.487 41.9211 134.113 38.097 130.638C34.4197 127.295 28.8017 127.606 23.8376 126.909C17.4487 126.012 11.1041 122.798 8.0998 117.136C5.09634 111.474 6.55183 103.261 12.2119 99.969C20.3415 95.2401 30.3224 102.466 39.5167 100.826C45.3872 99.7782 50.5654 95.1372 56.484 95.4686C65.3667 95.9645 69.4032 106.666 76.8956 111.301C81.9597 114.434 88.2897 114.576 94.2444 115.336C100.198 116.095 106.641 117.975 109.686 123.095C114.022 130.387 110.779 142.807 104.435 151.45Z" fill="#3B6631"/>
<path d="M151.38 73.8428C156.674 63.3877 156.688 52.2237 144.628 49.7664C140.069 48.8377 134.783 50.9278 130.577 49.1288C122.385 45.6253 124.967 30.9433 116.727 27.5321C111.898 25.5331 105.734 28.6466 100.669 27.1802C95.799 25.7697 93.4548 20.7044 90.4701 16.749C86.6285 11.6594 80.6269 7.85399 73.891 8.27866C67.1551 8.70334 60.1123 14.3885 59.6717 21.0954C59.0383 30.7275 70.5199 35.5461 73.2909 44.4474C75.0598 50.1296 73.1248 57.1413 76.2132 62.1256C80.849 69.6057 92.81 67.3717 100.687 71.4139C106.01 74.1459 109.115 79.59 112.623 84.3746C116.132 89.1593 120.923 93.7669 127.169 93.6691C136.063 93.5298 146.225 84.0233 151.38 73.8428Z" fill="#3B6631"/>
<path d="M153.326 150.885C154.182 147.829 156.757 145.712 159.923 145.303C164.52 144.71 168.701 148.232 168.671 152.822C168.643 157.081 165.031 160.311 160.806 160.502C155.755 160.729 152.035 155.494 153.326 150.885Z" fill="#3B6631"/>
<path d="M170.107 142.599C170.934 139.106 173.819 136.6 178.491 140.549C181.1 142.756 180.717 147.473 177.782 149.295C171.402 153.254 169.041 147.105 170.107 142.599Z" fill="#3B6631"/>
<path d="M121.008 122.313C113.14 129.705 102.746 132.659 96.1947 122.746C93.7182 118.998 93.7971 113.818 90.6345 110.608C84.4754 104.357 71.7121 110.486 65.623 104.17C62.0544 100.467 62.7745 94.2484 59.6189 90.2002C56.584 86.3072 51.0371 85.5891 46.2979 84.017C40.1988 81.9946 34.5332 77.7409 32.5486 71.7296C30.5635 65.7191 33.3703 58.0527 39.4611 55.8993C48.2092 52.8064 56.7566 61.5919 66.0271 61.673C71.9461 61.7248 77.7926 58.1817 83.5265 59.5739C92.1322 61.6627 94.2793 72.7269 100.829 78.5588C105.255 82.5013 111.424 83.7856 117.12 85.5975C122.816 87.4094 128.802 90.391 130.919 95.8869C133.931 103.712 128.667 115.116 121.008 122.313Z" fill="#559241"/>
</svg>
