<svg width="174" height="180" viewBox="0 0 174 180" fill="none" xmlns="http://www.w3.org/2000/svg">
<path d="M94.4501 43.0496C82.1437 24.6081 55.1236 20.3973 34.099 33.6449C13.075 46.8912 6.01228 72.7648 18.398 91.1547C20.7265 94.6126 23.5762 97.5643 26.807 99.9891C33.423 104.956 38.3101 111.569 41.9423 118.805C42.8734 120.66 43.9962 122.454 45.3192 124.168C56.8356 139.084 79.9745 142.253 98.0637 131.418C117.927 119.521 124.749 95.6383 113.358 78.569C112.525 77.3192 111.616 76.1426 110.641 75.0379C105.418 69.1236 101.322 62.3199 99.5061 54.6541C98.548 50.605 96.8768 46.6867 94.4501 43.0496Z" fill="#40771C"/>
<path d="M55.0705 54.0773C55.2189 32.1155 75.6676 14.4883 100.744 14.7059C125.819 14.9229 146.126 33.0609 145.882 55.0205C145.836 59.1494 145.071 63.1229 143.691 66.8507C140.867 74.4859 140.414 82.6079 141.365 90.6023C141.609 92.6513 141.657 94.7491 141.492 96.8835C140.054 115.461 122.301 130.188 101.038 130.475C77.6889 130.791 58.6899 114.207 58.8274 93.879C58.837 92.3909 58.9504 90.9254 59.1602 89.4858C60.284 81.7777 59.9644 73.9065 57.2435 66.4966C55.8065 62.5828 55.0415 58.4084 55.0705 54.0773Z" fill="#40771C"/>
<path d="M121.307 46.1564C114.874 24.7775 90.1575 12.9594 66.0999 19.7584C42.0432 26.5572 27.7056 49.5809 34.2293 70.933C35.4562 74.9475 37.3297 78.6213 39.7245 81.895C44.6277 88.5995 47.3892 96.4012 48.764 104.447C49.1166 106.509 49.6709 108.568 50.4411 110.606C57.1443 128.346 78.4383 138.043 98.9723 132.738C121.521 126.912 135.046 105.747 129.092 85.9587C128.656 84.5106 128.128 83.1105 127.514 81.7625C124.226 74.54 122.278 66.7808 122.775 58.8391C123.035 54.6444 122.576 50.3723 121.307 46.1564Z" fill="#6DA317"/>
<path d="M114.954 138.537C118.961 151.888 115.2 159.121 108.457 161.032C101.713 162.943 94.5401 158.808 90.533 145.457C86.5259 132.106 81.0844 69.834 81.0844 69.834C81.0844 69.834 110.947 125.186 114.954 138.537Z" fill="#D6E0AB"/>
<path d="M84.8249 85.5411L83.4979 87.9372L77.1851 82.9504L70.8716 77.9648L78.5114 80.5555L86.1518 83.145L84.8249 85.5411Z" fill="#D6E0AB"/>
<path d="M86.7557 84.965L89.2037 86.2943L91.7617 78.8004L94.319 71.3077L89.314 77.4721L84.3087 83.6355L86.7557 84.965Z" fill="#D6E0AB"/>
<path d="M88.6387 100.401L86.5283 104.214L76.4847 96.2808L66.4413 88.3488L78.5951 92.4685L90.75 96.5889L88.6387 100.401Z" fill="#D6E0AB"/>
<path d="M91.7115 99.4847L95.6067 101.6L99.6755 89.6782L103.745 77.7578L95.7803 87.5633L87.8173 97.3694L91.7115 99.4847Z" fill="#D6E0AB"/>
<path d="M94.0774 120.5L91.2645 125.58L77.8799 115.008L64.4944 104.437L80.6931 109.929L96.8914 115.42L94.0774 120.5Z" fill="#D6E0AB"/>
<path d="M98.1729 119.278L103.363 122.097L108.786 106.209L114.208 90.3222L103.595 103.392L92.9831 116.46L98.1729 119.278Z" fill="#D6E0AB"/>
<path d="M98.9869 137.971L95.7945 143.735L80.6062 131.74L65.418 119.744L83.7986 125.975L102.179 132.206L98.9869 137.971Z" fill="#D6E0AB"/>
<path d="M103.633 136.585L109.524 139.782L115.677 121.755L121.83 103.727L109.787 118.557L97.7441 133.387L103.633 136.585Z" fill="#D6E0AB"/>
</svg>
