<svg width="91" height="94" viewBox="0 0 91 94" fill="none" xmlns="http://www.w3.org/2000/svg">
<path d="M59.7184 23.6292L70.7294 37.5082C79.554 48.6311 77.5397 64.6077 66.2302 73.1927C54.9208 81.7777 38.5987 79.7204 29.7741 68.5975L18.7637 54.7193C9.93911 43.5964 11.9535 27.6198 23.2629 19.0348C34.5717 10.449 50.8938 12.5063 59.7184 23.6292Z" fill="#F7C830"/>
<path d="M62.0098 67.8901C65.2193 65.4535 69.53 65.633 71.638 68.2912C73.7467 70.9487 72.8536 75.0776 69.645 77.5135C66.4356 79.9501 62.1256 79.77 60.0168 77.1124C57.9081 74.4549 58.8012 70.326 62.0098 67.8901Z" fill="#F7C830"/>
<path d="M21.2411 16.4697C24.4498 14.0338 28.7605 14.2133 30.8693 16.8708C32.9781 19.5283 32.0849 23.6572 28.8763 26.0932C25.6669 28.5297 21.3569 28.3496 19.2482 25.6921C17.1394 23.0345 18.0311 18.9055 21.2411 16.4697Z" fill="#F7C830"/>
<path opacity="0.3" d="M61.8251 48.1542C63.8514 46.6161 66.7748 46.9846 68.3558 48.9775C69.9368 50.9703 69.576 53.8318 67.5497 55.3698C65.5234 56.9079 62.6 56.5394 61.019 54.5465C59.4386 52.5545 59.7996 49.6916 61.8251 48.1542Z" fill="white"/>
<path opacity="0.3" d="M60.1514 36.0499C61.4792 35.0423 63.3956 35.2836 64.4313 36.5894C65.467 37.8953 65.2308 39.7711 63.903 40.7786C62.5752 41.7862 60.6588 41.545 59.6231 40.2391C58.5874 38.9332 58.8236 37.0574 60.1514 36.0499Z" fill="white"/>
<path opacity="0.1" d="M41.7544 32.8363L55.6383 50.3367C60.1763 56.0571 59.1408 64.273 53.3247 68.6881C47.5085 73.1031 39.1154 72.0455 34.5773 66.325L20.6934 48.8247C16.1554 43.1042 17.1917 34.8877 23.007 30.4732C28.8225 26.0574 37.2163 27.1158 41.7544 32.8363Z" fill="white"/>
</svg>
