<svg width="63" height="61" viewBox="0 0 63 61" fill="none" xmlns="http://www.w3.org/2000/svg">
<path d="M37.1033 60.0008C26.2042 61.2036 14.405 60.7667 6.59947 52.1313C-2.30688 42.2769 -1.53508 22.507 8.62625 13.3551C13.564 8.90684 22.7143 6.75913 29.3057 7.02501C42.461 7.55574 53.009 8.84027 59.3484 23.0854C59.9784 24.492 60.5656 26.0239 61.1079 27.6961C67.2985 46.7302 49.5172 58.6313 37.1033 60.0008Z" fill="#F37525"/>
<path d="M10.831 39.6902C7.02179 39.6866 7.01027 45.4808 10.8256 45.4843C14.6348 45.4879 14.6463 39.6937 10.831 39.6902Z" fill="#FF923B"/>
<path d="M18.3211 48.5819C16.7179 48.6511 15.3606 49.8518 15.3591 51.4757L15.3587 51.8618C15.3573 53.3773 16.7172 54.8303 18.3154 54.7612C19.9186 54.692 21.2759 53.4913 21.2774 51.8673L21.2777 51.4813C21.2792 49.9658 19.9193 48.5128 18.3211 48.5819Z" fill="#FF923B"/>
<path d="M20.3012 41.2443C16.492 41.2407 16.4805 47.0349 20.2958 47.0384C24.105 47.042 24.1165 41.2478 20.3012 41.2443Z" fill="#FF923B"/>
<path d="M30.1596 49.3652C26.3504 49.3617 26.3389 55.1558 30.1542 55.1594C33.9634 55.1629 33.9749 49.3688 30.1596 49.3652Z" fill="#FF923B"/>
<path d="M28.5914 38.1614C24.7822 38.1578 24.7706 43.952 28.5859 43.9556C32.3951 43.9591 32.4066 38.1649 28.5914 38.1614Z" fill="#FF923B"/>
<path d="M31.5494 3.59613C31.3974 2.03873 30.3017 0.697372 28.5918 0.695772C27.1106 0.694386 25.4757 2.02324 25.6298 3.59059C25.7929 5.26143 25.9571 6.93228 26.1202 8.60312C26.2722 10.1605 27.3679 11.5009 29.0768 11.5025C30.558 11.5039 32.1929 10.175 32.0388 8.60866C31.8757 6.93782 31.7126 5.26697 31.5494 3.59613Z" fill="#8F5222"/>
</svg>
