<svg width="111" height="115" viewBox="0 0 111 115" fill="none" xmlns="http://www.w3.org/2000/svg">
<path d="M74.1944 98.5954C94.1369 89.8083 103.265 67.5426 94.5817 48.8636C85.8988 30.1845 62.6932 22.1655 42.7507 30.9525C22.8081 39.7396 13.6804 62.0053 22.3633 80.6843C31.0463 99.3634 54.2518 107.382 74.1944 98.5954Z" fill="#FD941E"/>
<path d="M49.8471 15.8958C46.0551 17.024 42.9845 20.5424 42.2973 25.0924C41.6106 29.6433 43.5014 33.9356 46.7864 36.1685C50.5783 35.0403 53.649 31.522 54.3357 26.9711C55.0237 22.4206 53.132 18.1288 49.8471 15.8958Z" fill="#6EA317"/>
<path d="M30.6382 19.4266C34.3528 20.7842 37.5101 23.3984 39.959 26.4719C42.408 29.5454 44.1961 33.0734 45.7493 36.6625" stroke="#65361A" stroke-width="2" stroke-miterlimit="10"/>
<path d="M37.8831 41.5942C37.8831 41.5942 42.0403 37.5646 53.555 34.66" stroke="#F6840A" stroke-width="2" stroke-miterlimit="10" stroke-linecap="round" stroke-linejoin="round"/>
<path opacity="0.3" d="M82.0073 65.7821C82.8149 67.5194 82.0433 69.5565 80.284 70.3316C78.5247 71.1068 76.4434 70.3267 75.6359 68.5895C74.8283 66.8522 75.5999 64.8151 77.3592 64.0399C79.1185 63.2647 81.1998 64.0448 82.0073 65.7821Z" fill="white"/>
<path opacity="0.3" d="M85.4007 58.281C87.1601 57.5058 87.9317 55.4689 87.1241 53.7314C86.3164 51.994 84.2354 51.214 82.4759 51.9893C80.7165 52.7645 79.9449 54.8014 80.7526 56.5388C81.5602 58.2762 83.6412 59.0562 85.4007 58.281Z" fill="white"/>
<path opacity="0.3" d="M94.3676 64.0806C95.1752 65.8178 94.4035 67.8549 92.6442 68.6301C90.8849 69.4053 88.8037 68.6252 87.9961 66.8879C87.1885 65.1507 87.9602 63.1136 89.7195 62.3384C91.4788 61.5632 93.56 62.3433 94.3676 64.0806Z" fill="white"/>
<path opacity="0.3" d="M88.7026 80.2007C90.462 79.4254 91.2336 77.3885 90.4259 75.6511C89.6183 73.9137 87.5373 73.1337 85.7779 73.9089C84.0184 74.6842 83.2468 76.7211 84.0545 78.4585C84.8621 80.1959 86.9431 80.9759 88.7026 80.2007Z" fill="white"/>
<path opacity="0.3" d="M75.3043 76.2986C76.1119 78.0358 75.3402 80.0729 73.5809 80.8481C71.8216 81.6233 69.7404 80.8432 68.9328 79.1059C68.1252 77.3687 68.8969 75.3316 70.6562 74.5564C72.4155 73.7812 74.4967 74.5613 75.3043 76.2986Z" fill="white"/>
</svg>
