<svg width="150" height="240" viewBox="0 0 150 240" fill="none" xmlns="http://www.w3.org/2000/svg">
<path d="M29.1176 193.414C32.1263 185.265 37.0136 177.546 41.8462 169.936C50.0831 156.965 58.3201 143.993 66.5561 131.021C85.89 100.573 105.411 69.8754 129.568 42.6104C136.834 34.41 141.568 25.382 149.999 18.5289C120.481 81.6943 78.0711 140.86 29.1176 193.414Z" fill="#3B6631"/>
<path d="M21.3901 204.718C32.5693 184.557 42.8707 163.927 52.2558 142.902C56.5622 133.257 60.7025 123.442 62.7382 113.108C64.8978 102.148 64.6354 90.8924 65.8263 79.7962C67.9307 60.1777 74.5357 41.3124 81.095 22.6476C89.5741 37.4691 91.6681 54.281 89.318 71.206C86.9678 88.1309 80.7312 104.303 73.9174 120.034C70.1503 128.731 66.1756 137.381 61.0684 145.392C58.1444 149.979 31.6743 197.901 21.3901 204.718Z" fill="#559241"/>
<path d="M41.3612 166.246C41.3612 166.246 43.6422 172.354 47.3875 172.844C47.3875 172.844 20.3262 217.877 8.92738 220.93C-2.47247 223.984 -0.848522 215.282 5.22641 211.936C11.3002 208.592 35.1968 179.183 41.3612 166.246Z" fill="#FAFAE8"/>
</svg>
