<svg width="55" height="75" viewBox="0 0 55 75" fill="none" xmlns="http://www.w3.org/2000/svg">
<path d="M8.89438 8.20209C6.67364 13.0758 7.84136 19.9716 12.3569 25.6526C16.8713 31.3336 23.4126 34.1377 28.7861 33.2303C31.0069 28.3566 29.8392 21.4608 25.3247 15.7799C20.8092 10.0999 14.268 7.29466 8.89438 8.20209Z" fill="#40771C"/>
<path d="M46.7525 8.23751C48.9641 13.1153 47.7835 20.0089 43.2584 25.6815C38.7333 31.354 32.1868 34.146 26.815 33.2285C24.6033 28.3506 25.784 21.457 30.3101 15.7845C34.8352 10.113 41.3816 7.32002 46.7525 8.23751Z" fill="#40771C"/>
<path d="M27.8307 0.450435C23.0175 3.25396 19.6075 10.1196 19.6 18.1646C19.5925 26.2096 22.9896 33.0806 27.7975 35.8941C32.6107 33.0896 36.0207 26.225 36.0282 18.18C36.0357 10.135 32.6386 3.26297 27.8307 0.450435Z" fill="#6EA317"/>
<path d="M36.8027 23.7241C33.6848 23.7441 30.6437 24.2706 27.7972 25.2958C24.9172 24.2632 21.8404 23.7389 18.6869 23.736C6.84256 23.7249 -1.488 30.8387 1.25159 46.2029C3.85769 60.8146 14.6794 72.7952 25.9219 73.9431C26.0865 73.9641 26.2553 73.9752 26.421 73.9923C26.4667 73.9953 26.5114 74.0023 26.5572 74.0054C27.0695 74.0506 27.5869 74.082 28.1176 74.0785C39.961 74.004 51.7134 61.4763 54.3659 46.0973C57.0184 30.7173 48.6472 23.6486 36.8027 23.7241Z" fill="#ED5746"/>
<path d="M6.08045 42.9685C6.0791 44.4143 5.49549 45.5859 4.77676 45.5853C4.05802 45.5846 3.47661 44.4119 3.47796 42.9661C3.47931 41.5202 4.06292 40.3486 4.78165 40.3493C5.50039 40.35 6.0818 41.5227 6.08045 42.9685Z" fill="#C4483A"/>
<path d="M21.4219 42.9828C21.4205 44.4286 20.8369 45.6003 20.1182 45.5996C19.3994 45.5989 18.818 44.4262 18.8194 42.9804C18.8207 41.5346 19.4043 40.363 20.1231 40.3636C20.8418 40.3643 21.4232 41.537 21.4219 42.9828Z" fill="#C4483A"/>
<path d="M36.7634 42.9972C36.762 44.443 36.1784 45.6147 35.4597 45.614C34.7409 45.6133 34.1595 44.4406 34.1609 42.9948C34.1622 41.549 34.7458 40.3774 35.4646 40.378C36.1833 40.3787 36.7647 41.5514 36.7634 42.9972Z" fill="#C4483A"/>
<path d="M52.1049 43.0116C52.1035 44.4574 51.5199 45.629 50.8012 45.6284C50.0824 45.6277 49.501 44.455 49.5024 43.0091C49.5037 41.5633 50.0873 40.3917 50.8061 40.3924C51.5248 40.3931 52.1062 41.5658 52.1049 43.0116Z" fill="#C4483A"/>
<path d="M13.7398 54.5332C13.7385 55.979 13.1548 57.1506 12.4361 57.1499C11.7174 57.1493 11.136 55.9766 11.1373 54.5308C11.1387 53.0849 11.7223 51.9133 12.441 51.914C13.1597 51.9157 13.7412 53.0884 13.7398 54.5332Z" fill="#C4483A"/>
<path d="M29.0813 54.5475C29.0799 55.9933 28.4963 57.165 27.7776 57.1643C27.0589 57.1636 26.4775 55.9909 26.4788 54.5451C26.4802 53.0993 27.0638 51.9277 27.7825 51.9283C28.5012 51.93 29.0827 53.1027 29.0813 54.5475Z" fill="#C4483A"/>
<path d="M44.4228 54.5619C44.4214 56.0077 43.8378 57.1793 43.1191 57.1786C42.4004 57.178 41.819 56.0052 41.8203 54.5594C41.8217 53.1136 42.4053 51.942 43.124 51.9427C43.8427 51.9444 44.4241 53.1171 44.4228 54.5619Z" fill="#C4483A"/>
<path d="M13.7615 31.4172C13.7601 32.863 13.1765 34.0346 12.4578 34.0339C11.739 34.0332 11.1576 32.8605 11.159 31.4147C11.1603 29.9689 11.7439 28.7973 12.4627 28.798C13.1814 28.7986 13.7628 29.9714 13.7615 31.4172Z" fill="#C4483A"/>
<path d="M29.1029 31.4316C29.1016 32.8774 28.5179 34.049 27.7992 34.0483C27.0805 34.0476 26.4991 32.8749 26.5004 31.4291C26.5018 29.9833 27.0854 28.8117 27.8041 28.8124C28.5228 28.813 29.1043 29.9858 29.1029 31.4316Z" fill="#C4483A"/>
<path d="M44.4444 31.4459C44.443 32.8917 43.8594 34.0633 43.1407 34.0627C42.422 34.062 41.8406 32.8893 41.8419 31.4435C41.8433 29.9977 42.4269 28.826 43.1456 28.8267C43.8643 28.8274 44.4458 30.0001 44.4444 31.4459Z" fill="#C4483A"/>
<path d="M21.4003 66.0989C21.3989 67.5447 20.8153 68.7163 20.0966 68.7156C19.3778 68.7149 18.7964 67.5422 18.7978 66.0964C18.7991 64.6506 19.3827 63.479 20.1015 63.4797C20.8202 63.4803 21.4016 64.6531 21.4003 66.0989Z" fill="#C4483A"/>
<path d="M36.7417 66.1132C36.7404 67.559 36.1567 68.7306 35.438 68.73C34.7193 68.7293 34.1379 67.5566 34.1392 66.1108C34.1406 64.665 34.7242 63.4933 35.4429 63.494C36.1616 63.4947 36.7431 64.6674 36.7417 66.1132Z" fill="#C4483A"/>
</svg>
