<svg width="111" height="101" viewBox="0 0 111 101" fill="none" xmlns="http://www.w3.org/2000/svg">
<path d="M110.636 48.4214C110.368 53.475 109.258 58.4313 107.452 63.1621C107.007 64.3637 106.51 65.5414 105.969 66.7061C102.397 74.4014 97.0257 81.3568 90.5508 86.9668C89.799 87.6099 89.037 88.242 88.2546 88.8403C86.7815 89.9683 85.2577 91.0187 83.6831 91.9934C74.5223 97.6058 63.7824 100.381 53.1254 100.372C50.83 100.383 48.5427 100.256 46.2729 99.9914C37.8086 99.0292 29.6459 96.2723 22.6315 91.7651C21.391 90.9679 20.1749 90.107 19.0158 89.1974C14.4313 85.611 10.4798 81.1843 7.46445 75.9007C6.60783 74.4203 5.84175 72.8693 5.14486 71.2487C1.90994 63.7499 0.405624 54.7961 1.28044 44.4404C2.19128 33.6081 6.3308 22.8227 14.2947 15.3712C14.9347 14.7867 15.5848 14.2231 16.2552 13.6825C17.2777 12.8615 18.3306 12.0744 19.4252 11.3311C24.1299 8.13247 29.4368 5.67667 35.0623 3.96149C37.1621 3.32264 39.3117 2.78335 41.4887 2.33961C45.6545 1.50766 49.9307 1.05493 54.2198 0.964412C55.6573 0.93093 57.0805 0.950177 58.5139 1.00127C65.0158 1.23622 71.4499 2.32883 77.4816 4.26487C79.0751 4.77184 80.632 5.35143 82.1655 5.97179C87.3593 8.10904 92.1367 10.9176 96.2364 14.4041C97.4544 15.4241 98.6153 16.5158 99.7061 17.6781C107.008 25.3508 111.325 35.6287 110.636 48.4214Z" fill="#355C2C"/>
<path d="M55.053 61.159C56.0098 64.2306 59.6011 65.637 59.9098 69.2513C60.1713 72.3193 58.1898 74.614 56.0409 76.5802C54.5778 77.9211 52.3228 79.2335 51.526 81.1194C50.3574 83.8805 52.1958 86.742 53.3413 89.1312C54.8967 92.4034 55.4083 97.5393 53.1264 100.371C50.8309 100.382 48.5437 100.255 46.2739 99.9906C46.3347 99.0573 46.9557 98.2051 48.2081 98.1734C53.9358 98.0385 47.2349 86.5742 46.9033 84.6206C46.4919 82.1197 47.047 79.8594 48.5586 77.7961C50.7624 74.7891 56.5612 72.486 54.9834 68.1909C53.9572 65.3929 50.8183 63.8814 50.3221 60.7157C49.9169 58.1083 51.2466 56.005 53.0801 54.2346C53.9633 53.3747 55.9731 52.3805 56.4672 51.2774C57.6408 48.6227 54.5921 47.4567 53.0277 46.1955C47.5635 41.7773 52.4128 37.2862 56.1707 33.4648C55.1434 31.9115 54.117 30.3583 53.0999 28.817C52.2948 27.5943 52.8817 26.166 54.1723 25.6139C55.0622 25.2337 55.9409 24.8623 56.8318 24.4821C55.2006 21.8228 52.9129 20.0464 49.7798 18.8226C48.1071 18.1623 48.3917 16.0909 49.5169 15.1576C51.2231 13.7432 53.228 12.4296 54.7371 10.835C56.1302 9.3835 56.3175 9.13789 55.7659 7.62988C55.1778 6.01436 54.1295 5.06609 54.0337 3.17739C53.9978 2.40918 54.0595 1.66693 54.2167 0.96159C55.6542 0.928108 57.0774 0.947348 58.5108 0.998441C57.5498 3.52597 62.0533 6.78798 61.4346 9.64121C60.8741 12.2099 57.6045 14.6089 54.8355 16.5765C57.9841 18.5138 60.275 21.2593 61.8596 24.8102C62.3556 25.9211 61.5433 27.0935 60.5304 27.5214C59.7178 27.8739 58.9164 28.2165 58.1048 28.558C58.9697 29.8792 59.8458 31.2015 60.7117 32.5227C61.2254 33.3043 61.1989 34.3998 60.5416 35.1117C59.065 36.7074 54.3031 40.1597 55.4647 42.6773C55.9517 43.7554 58.4811 44.6513 59.4125 45.5388C61.2225 47.2907 62.1017 49.5921 61.1357 52.0132C59.8334 55.2817 53.7789 57.0811 55.053 61.159Z" fill="#539D52"/>
<path d="M40.6974 15.8071C40.8994 19.3835 37.8954 21.4872 34.9612 22.8815C32.1277 24.2281 29.4229 26.0167 30.969 29.47C31.6497 30.9841 33.1776 32.1159 33.8105 33.7125C35.0863 36.9277 33.933 39.6163 31.6516 42.0331C29.715 44.096 27.16 45.5305 27.1764 48.6928C27.1823 51.0451 28.3725 53.4154 29.016 55.641C29.8621 58.5473 30.5088 61.742 28.7333 64.4618C27.6928 66.038 25.4488 66.5095 24.497 67.8659C22.1333 71.216 24.7922 75.0236 25.3085 78.4132C25.9996 83.015 24.3901 87.5419 22.6325 91.7643C21.392 90.9671 20.1759 90.1062 19.0169 89.1966C20.3527 85.954 21.5474 82.4804 21.0047 78.9833C20.563 76.2356 18.7781 73.793 18.5459 70.9918C18.372 68.9288 19.004 67.0767 20.453 65.5854C22.0516 63.9531 24.9759 63.3568 25.5445 60.8309C26.496 56.6217 22.4044 51.9531 22.8691 47.4957C23.3616 42.7199 28.7572 41.0463 29.4544 36.9304C30.1199 32.9936 24.8694 30.4911 25.2741 26.1372C25.6685 21.7713 29.5271 21.1908 32.6549 19.2315C33.9188 18.9869 34.6891 18.2065 34.9658 16.8793C36.2843 15.8079 36.3636 14.7154 35.2037 13.6128C35.0489 12.8385 34.5881 12.0908 34.4017 11.2946C33.9127 9.23636 34.0234 7.14487 34.6424 5.11157C34.7617 4.71366 34.9013 4.33666 35.0623 3.96168C37.1622 3.32283 39.3118 2.78354 41.4887 2.33979C39.4651 3.99366 38.2907 6.45631 38.4854 9.13815C38.66 11.5633 40.5746 13.4168 40.6974 15.8071Z" fill="#539D52"/>
<path d="M16.4461 25.8474C14.1943 29.1498 9.54191 30.7555 10.8388 35.4085C11.5784 38.075 13.7957 40.1467 14.3532 42.9642C14.849 45.523 14.1689 47.6806 12.5912 49.7508C11.7148 50.8983 10.3458 51.702 9.54254 52.8953C7.14717 56.4355 8.87341 58.5456 9.99161 61.8701C11.8428 67.3715 10.4012 71.7902 7.46444 75.899C6.60781 74.4185 5.84173 72.8675 5.14484 71.2469C6.39366 68.6062 6.66781 65.7039 5.40457 62.031C4.38666 59.0837 3.1765 56.2656 4.30989 53.1293C5.82237 49.0122 11.2636 47.5008 9.66213 42.4265C8.79549 39.6893 6.58234 37.5439 5.99541 34.6617C5.53096 32.3388 6.01981 30.3094 7.50073 28.4152C8.74959 26.8183 10.7846 25.9525 12.1168 24.4234C14.4086 21.8046 14.2812 18.881 14.2893 15.656C14.2833 15.5595 14.2885 15.464 14.2937 15.3685C14.9336 14.784 15.5838 14.2204 16.2542 13.6797C17.2767 12.8587 18.3296 12.0716 19.4241 11.3284C18.1676 15.7373 19.4299 21.465 16.4461 25.8474Z" fill="#539D52"/>
<path d="M92.6689 74.503C91.767 77.9809 89.8331 79.3831 87.199 81.6871C85.8827 82.5148 84.8244 83.5994 84.015 84.932C84.4165 87.209 85.6881 88.4451 87.8319 88.6381C87.9691 88.7089 88.1073 88.7797 88.2556 88.8405C86.7826 89.9685 85.2587 91.0189 83.6841 91.9936C81.5431 90.9477 79.8681 89.5113 79.4146 87.4014C78.0725 81.1273 85.4178 79.6058 87.8098 75.3104C85.1616 74.1756 82.4703 73.4526 79.5083 73.1324C78.6432 73.0351 77.6752 72.2193 77.6476 71.3137C77.572 68.425 78.4634 66.395 80.207 64.0672C81.2717 62.6522 82.7612 61.4188 83.6166 59.8653C85.6603 56.1796 83.3296 52.5594 79.0814 53.5037C77.6395 53.8347 76.5308 52.3838 76.6407 51.1232C76.9099 48.0925 78.3382 45.9724 80.2973 43.6986C81.4432 42.3832 83.7647 40.66 83.9179 38.7944C84.3208 34.0673 81.1976 35.335 78.9291 34.8473C74.2506 33.8539 72.8698 29.7599 75.2167 25.8874C77.196 22.6135 83.0071 20.2796 78.4246 16.6623C76.6509 15.2526 75.1997 14.71 74.6124 12.2536C73.79 8.89059 75.233 6.29188 77.4826 4.26706C79.0761 4.77404 80.633 5.35362 82.1665 5.97398C81.8746 6.15082 81.5816 6.33861 81.2887 6.52541C78.7643 7.79174 78.4101 9.32776 80.2302 11.1126C81.5859 13.6512 81.5513 12.6482 83.0627 14.0984C84.3759 15.3783 85.2891 16.213 85.4703 18.1276C85.6886 20.5767 84.1119 22.625 82.5508 24.3659C81.7764 25.2308 79.7503 26.3205 79.4332 27.369C79.917 28.5008 80.3999 29.6426 80.8837 30.7744C81.5913 30.7681 82.2937 30.8354 82.9828 30.9664C86.3496 32.287 88.7751 33.5072 88.5577 37.6156C88.2949 42.5737 83.5012 45.1932 81.6483 49.1756C84.8654 49.6264 87.7505 51.8172 88.6664 55.057C90.464 61.3643 83.2801 64.1507 82.1094 69.2114C85.3762 69.7498 88.3366 70.7197 91.3657 72.2679C92.1471 72.6666 92.9046 73.5569 92.6689 74.503Z" fill="#539D52"/>
<path d="M107.452 63.1622C107.007 64.3638 106.51 65.5415 105.969 66.7062C104.229 65.6916 101.754 66.0027 99.9657 65.0707C98.029 64.0569 96.8249 62.3562 96.6449 60.2187C96.3864 57.3 98.4184 55.274 99.2199 52.6747C100.69 47.9058 96.9053 48.1291 95.192 45.1682C93.8371 42.8316 95.0702 40.6914 96.0146 38.4613C98.0391 33.7099 101.403 28.9209 97.4835 24.4852C95.6982 22.4576 94.4841 20.554 94.9127 17.7871C95.109 16.5515 95.6234 15.4604 96.2344 14.4052C97.4523 15.4253 98.6133 16.5169 99.704 17.6792C99.4498 18.7834 99.4793 19.8711 100.032 20.9214C101.248 23.229 103.848 24.2444 104.36 27.0808C104.941 30.2824 102.836 33.6666 101.635 36.4377C100.831 38.2599 98.815 41.0203 99.6397 42.8937C100.281 44.3312 101.645 44.4538 102.707 45.5404C108.03 50.9844 97.4667 57.6214 103.946 61.7828C105.135 62.5441 106.32 62.7741 107.452 63.1622Z" fill="#539D52"/>
<path d="M63.87 89.2834C55.2139 91.2524 46.3881 90.9506 37.9713 88.0581C30.4092 85.4599 24.7908 79.6486 17.2866 77.1668C14.6331 76.2897 13.2671 80.3273 15.9165 81.2025C20.7469 82.8001 24.436 86.2554 28.8305 88.6615C32.3461 90.5863 36.098 92.0953 39.9865 93.1198C48.1549 95.2718 56.5855 95.3066 64.8065 93.4366C67.5244 92.8182 66.6032 88.661 63.87 89.2834Z" fill="#3B6631"/>
<path d="M89.403 79.5597C84.5928 82.3901 79.6264 84.9149 74.4946 87.14C71.9378 88.2491 73.937 92.0252 76.4897 90.9181C81.6205 88.693 86.5869 86.1672 91.3981 83.3378C93.7823 81.935 91.8085 78.144 89.403 79.5597Z" fill="#3B6631"/>
</svg>
