<svg width="98" height="105" viewBox="0 0 98 105" fill="none" xmlns="http://www.w3.org/2000/svg">
<path d="M38.0051 95.6268C17.1556 90.7213 4.1115 71.1305 8.92953 51.9565C10.6607 45.0672 14.521 38.9213 20.0927 34.1829C21.8839 32.6605 23.5224 30.5761 25.1047 27.8118C31.663 16.3397 45.615 6.44491 59.5884 9.73264C73.5599 13.0199 81.2594 28.0079 81.6437 41.1145C81.7357 44.2728 82.2015 46.8512 83.0713 48.9997C85.7737 55.6839 86.2869 62.8588 84.5555 69.7491C79.7372 88.9241 58.8555 100.533 38.0051 95.6268ZM56.9028 20.4207C48.4253 18.426 39.2005 25.4837 34.8239 33.1366C32.5907 37.0403 30.147 40.0941 27.3516 42.4703C23.5583 45.6956 20.936 49.8581 19.7679 54.5066C16.4307 67.7876 25.8172 81.4393 40.6907 84.9388C55.5633 88.4381 70.3797 80.4809 73.7169 67.1999C74.8852 62.5505 74.5305 57.6886 72.6912 53.138C71.3349 49.7829 70.6121 45.984 70.4832 41.5256C70.2253 32.7834 65.3803 22.4153 56.9028 20.4207Z" fill="#40771C"/>
<path d="M77.8785 51.0693C76.6303 47.9812 76.1573 44.6523 76.0598 41.3213C75.7221 29.7962 69.0756 17.6272 58.2439 15.0786C47.4113 12.5298 35.7337 20.3875 29.965 30.4758C28.2979 33.3916 26.2979 36.1397 23.7239 38.3274C19.1996 42.1746 15.8494 47.2648 14.3502 53.2312C10.2664 69.4835 21.4574 86.071 39.3466 90.2801C57.2359 94.4892 75.0481 84.7258 79.1319 68.4735C80.6331 62.5076 80.0726 56.4962 77.8785 51.0693Z" fill="#6DA317"/>
<path d="M41.7593 80.8355C49.142 82.5725 56.8322 77.1942 58.9358 68.8226C61.0394 60.451 56.7598 52.2563 49.3771 50.5193C41.9944 48.7823 34.3043 54.1607 32.2007 62.5322C30.0971 70.9038 34.3766 79.0985 41.7593 80.8355Z" fill="#65361A"/>
</svg>
