<svg width="90" height="160" viewBox="0 0 90 160" fill="none" xmlns="http://www.w3.org/2000/svg">
<path d="M43.1362 37.0519C43.6239 34.5915 44.5938 31.926 46.86 30.7708C49.1253 29.6154 52.6575 31.3765 52.058 33.8132C53.1163 24.9589 54.5579 15.3202 61.1686 9.17777C62.511 7.93006 64.4172 6.81601 66.1011 7.52338C67.9921 8.31735 68.3005 10.7925 68.2357 12.8229C68.0011 20.1227 66.5265 27.3942 63.8926 34.244C65.7622 31.2639 68.0615 28.542 70.698 26.1858C71.502 25.4677 72.463 24.7399 73.539 24.8287C75.8541 25.019 76.0722 28.2806 75.4538 30.4937C74.4157 34.2093 72.9591 37.8147 71.1193 41.223C72.1823 39.8663 73.6873 38.8496 75.3526 38.3624C76.0197 38.1676 76.7554 38.0596 77.3943 38.32C78.8463 38.9103 78.9471 40.8784 78.715 42.4146C77.8939 47.8716 75.7668 53.2663 71.9425 57.3246C68.1184 61.382 62.4638 63.9452 56.9062 63.3521C44.0443 61.979 41.091 47.3642 43.1362 37.0519Z" fill="#3B6631"/>
<path d="M34.5695 59.4462C27.8412 64.5894 24.1813 72.6748 21.5658 80.6424C17.4603 93.152 14.8481 107.039 14.049 120.27C13.6047 127.636 14.9668 162.868 31.1874 151.155C52.9823 135.417 63.4773 108.712 69.5894 82.8484C74.4004 62.4866 53.4506 45.0138 34.5695 59.4462Z" fill="#F37525"/>
<path d="M39.6752 68.005C36.9453 67.214 33.9437 68.4767 32.9606 71.2227L32.7417 71.8345C31.824 74.396 33.2275 77.6234 35.9487 78.412C38.6786 79.203 41.6801 77.9403 42.6632 75.1943L42.8821 74.5824C43.8002 72.02 42.3966 68.7927 39.6752 68.005Z" fill="#FF923B"/>
<path d="M34.9587 89.5735C32.9376 88.2661 30.3872 88.0255 28.1233 87.2188C25.2414 86.1929 22.6355 84.6825 19.9347 83.2873C18.7868 82.6941 17.7902 84.0917 18.7787 84.9338C22.4363 88.0474 29.6829 92.0353 34.6859 90.8414C35.2615 90.7033 35.4863 89.9144 34.9587 89.5735Z" fill="#8F5222"/>
<path d="M60.0054 100.597C59.2846 99.9081 58.6869 99.7694 57.6974 99.5972C56.4106 99.3744 55.1442 99.0841 53.8699 98.799C53.1055 98.628 50.7526 97.8406 50.5365 99.2009C50.5261 99.2668 50.5158 99.3328 50.5057 99.3977C50.4493 99.7543 50.6763 100.092 50.944 100.299C52.2514 101.306 53.8773 101.754 55.4819 102.1C56.8731 102.4 58.3698 102.906 59.6696 102.141C60.1769 101.843 60.5077 101.078 60.0054 100.597Z" fill="#8F5222"/>
<path d="M40.2819 115.223C37.5188 113.949 34.3129 113.881 31.4481 112.765C28.2032 111.5 25.6628 109.552 22.8883 107.546C21.9947 106.901 21.1172 108.091 21.6634 108.884C25.0955 113.87 34.1455 119.098 40.3555 116.59C41.022 116.321 40.8165 115.468 40.2819 115.223Z" fill="#8F5222"/>
<path d="M51.3836 118.037C50.1702 117.668 48.86 117.535 47.5946 117.47C46.272 117.402 45.7422 119.442 47.1041 119.796C48.3248 120.114 49.6111 120.408 50.8813 120.424C52.2332 120.441 52.7804 118.461 51.3836 118.037Z" fill="#8F5222"/>
<path d="M29.9073 133.376C27.9943 131.867 25.1647 131.555 22.9148 130.555C20.098 129.305 17.5154 127.747 15.1196 125.834C14.2421 125.133 12.9612 126.515 13.7709 127.306C16.0234 129.508 18.4522 131.45 21.2876 132.89C23.6629 134.096 26.8266 135.703 29.5465 135.044C30.3625 134.849 30.5358 133.872 29.9073 133.376Z" fill="#8F5222"/>
<path d="M38.3499 143.753C36.4209 143.218 34.7806 142.421 32.9429 141.67C31.7351 141.176 30.8335 142.749 31.5606 143.654C32.648 145.009 34.3493 145.862 36.0077 146.357C37.1479 146.696 39.4443 147.316 40.142 145.881C40.7343 144.665 39.312 144.019 38.3499 143.753Z" fill="#8F5222"/>
</svg>
