<svg width="87" height="97" viewBox="0 0 87 97" fill="none" xmlns="http://www.w3.org/2000/svg">
<path d="M30.1993 1.43759C27.9403 4.89825 27.9137 10.4407 30.5114 15.6412C33.109 20.8428 37.5951 24.2252 41.7719 24.6062C44.031 21.1456 44.0576 15.6032 41.4589 10.4026C38.8613 5.20102 34.3762 1.81763 30.1993 1.43759Z" fill="#40771C"/>
<path d="M43.7647 26.5285C43.6519 22.0785 42.8885 4.63952 45.8604 2.14572C47.8239 0.497758 52.2213 2.08499 54.7339 2.52616" stroke="#65361A" stroke-width="2" stroke-miterlimit="10"/>
<path d="M75.5344 79.4901C81.6081 73.5562 81.6171 63.9263 75.5545 57.981C69.4919 52.0358 59.6534 52.0266 53.5797 57.9605C47.506 63.8943 47.4969 73.5243 53.5596 79.4695C59.6222 85.4148 69.4606 85.424 75.5344 79.4901Z" fill="#803A4D"/>
<path d="M27.8214 44.2019C29.4007 37.7173 25.3102 31.2071 18.6851 29.6611C12.0601 28.115 5.40913 32.1185 3.82986 38.6031C2.25058 45.0877 6.34102 51.5978 12.9661 53.1439C19.5912 54.6899 26.2421 50.6865 27.8214 44.2019Z" fill="#803A4D"/>
<path d="M83.1075 50.7568C85.0744 42.5805 79.897 34.3913 71.5436 32.4658C63.1902 30.5403 54.8239 35.6076 52.8571 43.7839C50.8902 51.9602 56.0675 60.1493 64.4209 62.0748C72.7744 64.0003 81.1406 58.9331 83.1075 50.7568Z" fill="#A34A63"/>
<path d="M68.7388 38.1639C70.8172 30.0137 65.752 21.7573 57.4252 19.7226C49.0985 17.6879 40.6635 22.6455 38.5851 30.7956C36.5067 38.9458 41.5719 47.2022 49.8986 49.2369C58.2254 51.2715 66.6604 46.314 68.7388 38.1639Z" fill="#803A4D"/>
<path d="M46.4867 36.606C48.4535 28.4297 43.2762 20.2406 34.9228 18.3151C26.5693 16.3896 18.2031 21.4568 16.2362 29.6331C14.2693 37.8094 19.4467 45.9986 27.8001 47.9241C36.1535 49.8496 44.5198 44.7823 46.4867 36.606Z" fill="#A34A63"/>
<path d="M62.1829 64.2689C68.2566 58.335 68.2656 48.7051 62.203 42.7598C56.1404 36.8146 46.3019 36.8054 40.2282 42.7393C34.1545 48.6732 34.1454 58.3031 40.2081 64.2483C46.2707 70.1936 56.1091 70.2028 62.1829 64.2689Z" fill="#A34A63"/>
<path d="M54.6325 96.7754C63.2143 96.7834 70.1776 89.9805 70.1854 81.5806C70.1933 73.1807 63.2427 66.3647 54.6609 66.3567C46.0792 66.3487 39.1159 73.1516 39.108 81.5515C39.1002 89.9514 46.0507 96.7674 54.6325 96.7754Z" fill="#A34A63"/>
<path d="M53.5209 78.979C55.8558 70.8963 51.0543 62.491 42.7965 60.2052C34.5387 57.9195 25.9515 62.6188 23.6166 70.7015C21.2816 78.7842 26.0831 87.1895 34.3409 89.4753C42.5988 91.7611 51.1859 87.0617 53.5209 78.979Z" fill="#803A4D"/>
<path d="M36.5788 70.3847C42.6525 64.4508 42.6615 54.8209 36.5989 48.8757C30.5363 42.9304 20.6978 42.9212 14.6241 48.8551C8.55032 54.789 8.54131 64.4189 14.6039 70.3642C20.6666 76.3094 30.505 76.3186 36.5788 70.3847Z" fill="#A34A63"/>
<path opacity="0.1" d="M26.6262 41.4103C28.5879 41.4122 30.1796 39.8571 30.1814 37.937C30.1832 36.0168 28.5944 34.4588 26.6327 34.4569C24.671 34.4551 23.0792 36.0102 23.0774 37.9303C23.0756 39.8505 24.6645 41.4085 26.6262 41.4103Z" fill="white"/>
<path opacity="0.1" d="M61.7912 53.5132C61.7894 55.4337 60.197 56.9895 58.2359 56.9876C56.2749 56.9858 54.6844 55.427 54.6862 53.5066C54.688 51.5862 56.2804 50.0314 58.2425 50.0332C60.2045 50.0351 61.793 51.5928 61.7912 53.5132Z" fill="white"/>
<path opacity="0.1" d="M50.3975 78.1351C50.3957 80.0555 48.8033 81.6113 46.8423 81.6095C44.8803 81.6076 43.2918 80.0489 43.2936 78.1285C43.2954 76.208 44.8868 74.6532 46.8488 74.6551C48.8098 74.6569 50.3993 76.2157 50.3975 78.1351Z" fill="white"/>
<path opacity="0.1" d="M65.3121 86.7473C65.3103 88.6677 63.7179 90.2235 61.7568 90.2216C59.7948 90.2198 58.2063 88.6611 58.2081 86.7406C58.2099 84.8202 59.8013 83.2654 61.7633 83.2672C63.7254 83.2691 65.3139 84.8268 65.3121 86.7473Z" fill="white"/>
<path opacity="0.1" d="M24.5268 66.5842C24.525 68.5046 22.9335 70.0594 20.9715 70.0576C19.0095 70.0558 17.421 68.497 17.4228 66.5775C17.4246 64.6571 19.016 63.1013 20.978 63.1032C22.94 63.105 24.5286 64.6637 24.5268 66.5842Z" fill="white"/>
</svg>
