<svg width="91" height="106" viewBox="0 0 91 106" fill="none" xmlns="http://www.w3.org/2000/svg">
<path d="M58.0288 90.4251C58.0158 104.314 52.2662 105.024 45.1744 105.017C38.0827 105.011 32.3345 104.29 32.3475 90.4011C32.3605 76.5121 45.2583 15.3425 45.2583 15.3425C45.2583 15.3425 58.0418 76.5362 58.0288 90.4251Z" fill="#40771C"/>
<path d="M29.007 47.9063C40.7329 47.9172 50.2473 38.6219 50.2581 27.1445C50.2688 15.6672 40.7718 6.35402 29.0459 6.34305C17.3199 6.33208 7.8055 15.6274 7.79476 27.1048C7.78403 38.5822 17.2811 47.8953 29.007 47.9063Z" fill="#6DA317"/>
<path d="M11.4894 56.1726C17.671 56.1784 22.6867 51.2782 22.6924 45.2276C22.698 39.1771 17.6915 34.2674 11.5099 34.2616C5.32831 34.2558 0.312549 39.1561 0.306888 45.2067C0.301227 51.2572 5.30781 56.1669 11.4894 56.1726Z" fill="#6DA317"/>
<path d="M84.2205 26.5109C85.3984 21.6659 82.3406 16.8034 77.3906 15.6502C72.4406 14.4971 67.473 17.49 66.2951 22.335C65.1171 27.18 68.175 32.0424 73.1249 33.1956C78.0749 34.3487 83.0426 31.3559 84.2205 26.5109Z" fill="#6DA317"/>
<path d="M64.2471 78.554C78.7472 78.5676 90.5126 67.0731 90.5258 52.8804C90.5391 38.6877 78.7953 27.1713 64.2952 27.1577C49.7952 27.1441 38.0298 38.6386 38.0165 52.8313C38.0033 67.024 49.7471 78.5404 64.2471 78.554Z" fill="#6DA317"/>
<path d="M53.9937 36.1204C64.046 36.1298 72.2024 28.1612 72.2116 18.3221C72.2208 8.48293 64.0793 0.499092 54.0271 0.489686C43.9749 0.480281 35.8185 8.44887 35.8093 18.288C35.8001 28.1272 43.9415 36.111 53.9937 36.1204Z" fill="#6DA317"/>
<path d="M28.9789 77.9299C39.3275 77.9396 47.7245 69.736 47.734 59.6067C47.7434 49.4774 39.3619 41.2581 29.0132 41.2484C18.6645 41.2387 10.2676 49.4423 10.2581 59.5716C10.2486 69.701 18.6302 77.9203 28.9789 77.9299Z" fill="#6DA317"/>
<path opacity="0.3" d="M66.2417 52.5015C66.2394 55.0179 64.1534 57.0558 61.5825 57.0534C59.0115 57.051 56.9294 55.0092 56.9317 52.4927C56.9341 49.9763 59.02 47.9384 61.591 47.9408C64.162 47.9432 66.2441 49.985 66.2417 52.5015Z" fill="white"/>
<path opacity="0.3" d="M79.1584 40.7003C79.1561 43.2168 77.0702 45.2547 74.4992 45.2523C71.9282 45.2499 69.8461 43.2081 69.8485 40.6916C69.8508 38.1751 71.9368 36.1372 74.5077 36.1396C77.0787 36.142 79.1608 38.1838 79.1584 40.7003Z" fill="white"/>
<path opacity="0.3" d="M82.1116 57.0737C82.1093 59.5901 80.0233 61.628 77.4524 61.6256C74.8814 61.6232 72.7993 59.5814 72.8016 57.0649C72.804 54.5485 74.8899 52.5106 77.4609 52.513C80.0319 52.5144 82.114 54.5562 82.1116 57.0737Z" fill="white"/>
</svg>
