<svg width="104" height="108" viewBox="0 0 104 108" fill="none" xmlns="http://www.w3.org/2000/svg">
<path d="M98.4031 72.4082C99.5411 73.1495 100.467 74.1298 101.021 75.5021C102.327 78.7422 98.5674 81.6922 95.2362 82.8883C83.6671 87.0407 70.8233 85.9648 58.7011 83.6757C53.2806 82.6516 47.795 81.3534 43.0925 78.5072C31.6678 71.5899 12.1345 42.5009 27.766 31.161C44.2812 19.1794 62.2709 44.5984 70.1788 54.0304C75.0709 59.8665 80.4646 64.871 87.2607 68.4918C90.3248 70.1244 95.2067 70.3254 98.4031 72.4082Z" fill="#B61F25"/>
<path d="M18.2324 35.5071C19.3658 31.9523 21.1447 29.4663 23.3342 27.8009C20.9193 22.7585 19.2513 15.5956 22.9394 12.4626C23.2587 12.1907 23.6805 12.4393 23.7694 12.7863C24.4368 15.4047 23.4216 18.2452 23.8907 21C24.2169 22.9164 24.8922 24.6821 25.6104 26.4348C27.3827 25.6075 29.3295 25.1622 31.3858 25.0615C38.0135 24.7358 45.6899 27.7574 51.6355 31.3812C47.3652 33.0011 42.7859 33.9162 38.1855 34.0687C38.2939 37.7061 38.9377 41.9944 41.045 45.057C37.1572 43.8812 33.4084 42.3279 29.882 40.4312C27.1399 43.5733 23.691 48.0831 21.963 51.7766C18.7634 46.7204 16.4287 41.1653 18.2324 35.5071Z" fill="#559241"/>
<path d="M41.3388 67.0787C54.3124 74.8819 66.7777 75.9482 81.2337 78.7653C82.738 79.0577 82.6708 80.9344 81.2611 81.3C67.0133 84.9912 50.2249 78.5901 38.2678 71.1046C35.4574 69.3453 38.5459 65.3987 41.3388 67.0787Z" fill="#DD1F26"/>
</svg>
