<svg width="65" height="63" viewBox="0 0 65 63" fill="none" xmlns="http://www.w3.org/2000/svg">
<path d="M32.3131 62.7529C49.9606 62.7694 64.2799 48.7799 64.2961 31.5064C64.3122 14.2329 50.0192 0.216576 32.3716 0.200064C14.7241 0.183552 0.404836 14.1731 0.388674 31.4466C0.372512 48.7201 14.6656 62.7364 32.3131 62.7529Z" fill="#C4483A"/>
<path d="M32.3574 15.3716L27.0909 31.1571L32.5235 47.5806L37.5954 31.167L32.3574 15.3716Z" fill="#6DA317"/>
<path d="M43.9667 42.8747L36.2869 28.0661L20.5807 20.2134L28.8518 35.33L43.9667 42.8747Z" fill="#6DA317"/>
<path d="M20.6978 42.8529L35.8267 35.3365L43.8498 19.9635L28.4052 28.0587L20.6978 42.8529Z" fill="#6DA317"/>
<path d="M15.8898 31.4611L32.0173 36.6167L48.7962 31.2999L32.0269 26.3348L15.8898 31.4611Z" fill="#6DA317"/>
<path opacity="0.3" d="M37.55 12.3894C40.1209 12.3918 42.2069 10.3538 42.2092 7.83738C42.2116 5.32098 40.1294 3.2791 37.5585 3.27669C34.9876 3.27429 32.9016 5.31227 32.8992 7.82867C32.8969 10.3451 34.9791 12.387 37.55 12.3894Z" fill="white"/>
<path opacity="0.3" d="M54.8604 16.9619C54.858 19.4784 52.7721 21.5163 50.2011 21.5139C47.6302 21.5115 45.548 19.4697 45.5504 16.9532C45.5527 14.4367 47.6387 12.3988 50.2097 12.4012C52.7806 12.4036 54.8627 14.4454 54.8604 16.9619Z" fill="white"/>
</svg>
